HIERARCHY
ROOT SimulationBone
{
	OFFSET 0.000000 0.000000 0.000000
	CHANNELS 6 Xposition Yposition Zposition Zrotation Yrotation Xrotation 
	JOINT Hips
	{
		OFFSET 0.000000 0.000000 0.000000
		CHANNELS 6 Xposition Yposition Zposition Zrotation Yrotation Xrotation 
		JOINT RightUpLeg
		{
			OFFSET 0.103457 1.857822 10.548516
			CHANNELS 3 Zrotation Yrotation Xrotation
			JOINT RightLeg
			{
				OFFSET 43.500008 -0.000031 0.000015
				CHANNELS 3 Zrotation Yrotation Xrotation
				JOINT RightFoot
				{
					OFFSET 42.372192 0.000027 -0.000009
					CHANNELS 3 Zrotation Yrotation Xrotation
					JOINT RightToe
					{
						OFFSET 17.299999 0.000000 -0.000004
						CHANNELS 3 Zrotation Yrotation Xrotation
						End Site
						{
							OFFSET 0.000000 0.000000 0.000000
						}
					}
				}
			}
		}
		JOINT LeftUpLeg
		{
			OFFSET 0.103460 1.857822 -10.548513
			CHANNELS 3 Zrotation Yrotation Xrotation
			JOINT LeftLeg
			{
				OFFSET 43.500038 -0.000015 -0.000002
				CHANNELS 3 Zrotation Yrotation Xrotation
				JOINT LeftFoot
				{
					OFFSET 42.372269 -0.000019 0.000014
					CHANNELS 3 Zrotation Yrotation Xrotation
					JOINT LeftToe
					{
						OFFSET 17.300005 -0.000001 0.000011
						CHANNELS 3 Zrotation Yrotation Xrotation
						End Site
						{
							OFFSET 0.000000 0.000000 0.000000
						}
					}
				}
			}
		}
		JOINT Spine
		{
			OFFSET 6.901966 -2.603743 -0.000003
			CHANNELS 3 Zrotation Yrotation Xrotation
			JOINT Spine1
			{
				OFFSET 12.588103 0.000012 0.000008
				CHANNELS 3 Zrotation Yrotation Xrotation
				JOINT Spine2
				{
					OFFSET 12.343199 0.000004 0.000007
					CHANNELS 3 Zrotation Yrotation Xrotation
					JOINT Neck
					{
						OFFSET 25.832901 -0.000008 -0.000001
						CHANNELS 3 Zrotation Yrotation Xrotation
						JOINT Head
						{
							OFFSET 11.766611 0.000029 -0.000004
							CHANNELS 3 Zrotation Yrotation Xrotation
							End Site
							{
								OFFSET 0.000000 0.000000 0.000000
							}
						}
					}
					JOINT RightShoulder
					{
						OFFSET 19.745907 -1.480370 6.000077
						CHANNELS 3 Zrotation Yrotation Xrotation
						JOINT RightArm
						{
							OFFSET 11.284128 -0.000004 -0.000015
							CHANNELS 3 Zrotation Yrotation Xrotation
							JOINT RightForeArm
							{
								OFFSET 33.000065 0.000010 0.000016
								CHANNELS 3 Zrotation Yrotation Xrotation
								JOINT RightHand
								{
									OFFSET 25.200001 0.000010 0.000006
									CHANNELS 3 Zrotation Yrotation Xrotation
									End Site
									{
										OFFSET 0.000000 0.000000 0.000000
									}
								}
							}
						}
					}
					JOINT LeftShoulder
					{
						OFFSET 19.746094 -1.480385 -6.000086
						CHANNELS 3 Zrotation Yrotation Xrotation
						JOINT LeftArm
						{
							OFFSET 11.284142 -0.000011 -0.000013
							CHANNELS 3 Zrotation Yrotation Xrotation
							JOINT LeftForeArm
							{
								OFFSET 33.000092 0.000004 0.000015
								CHANNELS 3 Zrotation Yrotation Xrotation
								JOINT LeftHand
								{
									OFFSET 25.199759 0.000141 0.000412
									CHANNELS 3 Zrotation Yrotation Xrotation
									End Site
									{
										OFFSET 0.000000 0.000000 0.000000
									}
								}
							}
						}
					}
				}
			}
		}
	}
}
MOTION
Frames: 10
Frame Time: 0.033333
153.926628 0.000000 -541.603310 0.000000 -59.597742 0.000000 0.061415 88.250298 1.083504 96.157912 1.243803 178.186051 -166.387452 5.618292 -172.978789 -20.387920 -0.916123 9.620748 91.189214 -4.391158 13.517727 21.454560 0.003107 0.000017 167.007004 -8.569505 177.123280 -6.093944 1.592838 -0.141652 63.848731 -0.397231 -1.044713 21.454551 -0.003089 0.000000 9.052891 -0.117527 -0.665648 8.094047 -0.188232 -1.337856 7.776041 -0.196435 -1.336703 10.385328 -8.546529 -9.213320 -32.037764 9.971923 -15.663109 168.585215 -73.102784 10.329989 -2.186279 54.207451 43.351252 -37.116730 -17.828160 1.595628 5.943319 5.193453 20.242493 -155.449191 81.692409 26.438112 -13.927558 -60.973734 -31.696097 -35.900103 17.929923 -1.545542 -1.308076 6.385835 -9.963533 
155.282715 0.000000 -540.011410 0.000000 -57.643082 0.000000 -0.196318 88.447563 1.162445 95.700871 2.630632 178.277449 -165.915800 4.446496 -172.741017 -20.929129 -0.351606 9.857531 90.641610 -4.475516 13.730472 21.454560 0.003110 0.000018 167.095250 -9.039801 176.324967 -7.136331 2.296680 1.632465 63.905415 -2.194988 -2.284601 21.454555 -0.003089 -0.000002 9.046455 0.358088 -0.508137 8.076967 0.750749 -0.990085 7.758905 0.744620 -0.994601 10.660162 -9.023305 -10.051609 -32.943433 10.545588 -16.992689 169.152995 -72.966166 9.752700 -1.780478 54.347819 45.363927 -40.480509 -18.134099 1.702852 4.536195 4.819967 21.967608 -156.449841 81.724525 25.423895 -13.971897 -60.732198 -32.526443 -34.707531 17.531260 -1.491925 -1.555088 4.083928 -12.198276 
156.652075 0.000000 -538.445508 0.000000 -55.829605 0.000000 -0.370736 88.665100 1.229249 95.105105 3.918991 178.045302 -165.958461 3.369806 -172.934994 -22.234764 0.062213 10.138657 89.782659 -4.599256 13.626904 21.454560 0.003102 0.000018 166.853721 -9.465799 177.997817 -9.043465 2.738349 1.475815 65.936604 -2.277113 -2.912584 21.454553 -0.003079 -0.000001 9.010379 0.858628 -0.414576 8.002946 1.743881 -0.768921 7.684738 1.739053 -0.779446 10.648207 -9.791285 -10.682762 -33.684157 10.699111 -17.907016 170.213806 -73.020145 8.663093 -1.661232 54.798242 47.212511 -42.688648 -18.238714 1.771133 3.713556 2.056168 22.483016 -158.624081 82.156999 23.214292 -14.672957 -60.477452 -32.860863 -33.306127 17.176442 -1.437641 -1.344832 2.064311 -13.543394 
158.038889 0.000000 -536.904889 0.000000 -54.159166 0.000000 -0.433342 88.977211 1.253380 94.434860 4.676969 177.888893 -166.395662 2.647402 -173.350761 -23.976367 0.284361 10.642960 88.056800 -4.831817 13.254172 21.454558 0.003109 0.000017 167.111629 -9.596689 -179.865778 -10.106120 2.657203 0.938948 67.671062 -2.117611 -3.689715 21.454553 -0.003084 0.000001 8.913429 1.210631 -0.453921 7.806963 2.449082 -0.825434 7.488588 2.443923 -0.840218 10.628574 -9.952276 -11.008515 -34.015377 10.600388 -18.260958 169.127505 -73.617514 9.755711 -0.553748 55.701589 48.089825 -43.769170 -18.078254 1.791796 2.834680 -0.117850 23.695606 -161.339081 82.375298 20.463047 -15.855261 -60.192470 -33.012398 -31.922771 16.748261 -1.380519 -0.799170 0.800226 -14.305288 
159.447336 0.000000 -535.388837 0.000000 -52.631712 0.000000 -0.371737 89.351967 1.262180 93.937331 5.000313 178.215686 -166.947568 1.950000 -174.297521 -26.013790 0.541949 11.893245 85.844208 -5.724212 12.005796 21.454557 0.003103 0.000018 167.909149 -9.283794 -178.271776 -10.562315 2.647138 0.870740 69.264429 -2.184228 -4.205349 21.454553 -0.003088 0.000001 8.792137 1.456654 -0.630417 7.558895 2.951307 -1.164862 7.240407 2.944078 -1.182683 10.801760 -9.575338 -11.241567 -33.936253 10.211870 -18.247928 166.410032 -74.329090 12.510394 1.000871 56.459279 48.446583 -44.355850 -17.990855 1.803275 3.154437 -0.467866 23.323708 -161.841619 82.239364 19.955996 -17.023406 -59.981854 -32.760569 -31.140441 16.446769 -1.345070 -0.125313 -0.058667 -15.405720 
160.881594 0.000000 -533.896635 0.000000 -51.245624 0.000000 -0.228775 89.643463 1.245745 93.640726 5.252975 178.785142 -168.101911 1.118501 -175.155475 -29.306047 0.755299 13.453962 83.470164 -7.184007 9.464289 21.454555 0.003105 0.000017 168.974645 -8.952098 -178.528892 -10.880713 2.932188 1.957852 70.939916 -2.919614 -4.312893 21.454555 -0.003089 0.000001 8.668931 1.671096 -0.839088 7.304905 3.391711 -1.571880 6.986330 3.382023 -1.592348 11.013852 -9.099753 -11.460601 -33.375258 10.024976 -18.255648 163.274197 -74.840766 15.694106 1.869749 56.678853 48.770617 -44.167589 -18.281544 1.816848 3.896286 0.629715 22.104174 -161.329560 81.795579 20.479598 -17.894228 -59.684297 -32.528636 -30.908034 16.335941 -1.333266 0.504190 -0.303674 -15.624355 
162.345843 0.000000 -532.427568 0.000000 -49.998040 0.000000 -0.083360 89.791641 1.233065 93.500526 5.585250 179.374146 -170.003135 -0.154208 -176.965092 -33.929463 1.056871 15.511582 80.867377 -9.841291 4.093630 21.454555 0.003106 0.000015 170.030142 -8.705099 -179.349429 -11.495003 3.467522 3.318811 72.804291 -3.805556 -4.335974 21.454553 -0.003088 0.000001 8.555223 1.897824 -1.013187 7.069437 3.853825 -1.909831 6.750754 3.842081 -1.933095 11.522204 -9.023428 -11.831711 -33.048673 10.192071 -18.656177 160.775796 -74.993162 18.238116 1.996858 56.415477 47.882727 -43.808434 -18.375519 1.812483 4.803065 1.887318 21.610109 -160.286044 81.392455 21.542009 -18.743048 -59.392053 -32.188650 -30.925362 16.216727 -1.325971 0.495667 0.659724 -14.855568 
163.844262 0.000000 -530.980918 0.000000 -48.885160 0.000000 -0.049657 89.665199 1.328272 93.509515 6.413711 -179.743564 -172.647470 -2.336700 -178.559996 -39.997369 1.127295 16.982623 78.926961 -13.565911 -5.716774 21.454557 0.003104 0.000016 170.888369 -9.041792 -179.559390 -12.598145 3.953537 4.490875 74.894472 -4.517225 -4.304453 21.454550 -0.003088 -0.000000 8.477086 2.231652 -1.212731 6.901304 4.531440 -2.292240 6.582417 4.517378 -2.319607 12.148168 -9.218336 -12.243990 -33.001056 10.537934 -19.242028 160.230323 -75.198894 18.784782 1.485765 56.061988 46.089526 -43.505703 -18.706802 1.825424 5.404041 2.847073 22.550742 -159.779749 81.113250 22.059262 -19.983563 -59.068453 -31.496458 -30.982711 16.017169 -1.314330 0.161822 2.240551 -13.059791 
165.381030 0.000000 -529.555970 0.000000 -47.902495 0.000000 -0.094994 89.432953 1.444941 93.675560 7.321025 -178.891121 -175.596282 -4.686012 179.452224 -46.824017 1.539870 17.768259 77.808730 -17.525862 -17.162474 21.454555 0.003107 0.000012 171.766786 -9.572409 -178.935903 -13.906000 4.194809 5.089308 77.016072 -4.792951 -4.185130 21.454553 -0.003081 0.000000 8.432902 2.553090 -1.341840 6.802501 5.180370 -2.534117 6.483345 5.164840 -2.565417 12.988244 -9.293575 -12.771684 -33.150709 10.690617 -19.854841 160.163496 -75.151533 18.855301 0.688616 55.692102 43.746033 -43.055265 -19.412975 1.858783 5.746277 2.254585 23.046604 -159.414334 80.872541 22.433249 -21.469885 -58.637461 -30.907009 -30.959619 15.775350 -1.298354 0.096884 4.147375 -10.528343 
166.960327 0.000000 -528.152008 0.000000 -47.045083 0.000000 -0.084847 89.271507 1.543286 94.123819 7.901394 -178.165716 -178.353738 -6.664987 177.061412 -53.566981 2.513190 17.551522 76.261077 -20.105340 -25.044917 21.454567 0.003109 0.000021 173.258841 -9.844193 -178.152166 -14.714148 4.362867 5.362714 78.897701 -4.847057 -4.025048 21.454555 -0.003094 -0.000001 8.454966 2.768040 -1.414014 6.839856 5.614509 -2.665380 6.520466 5.598184 -2.699313 13.762017 -9.375978 -13.329707 -33.319968 10.987331 -20.584448 160.373607 -75.131336 18.641915 -0.201385 55.520473 40.395358 -42.804806 -20.029246 1.892064 5.588706 0.432249 23.366446 -159.804037 80.507918 22.043184 -23.250828 -57.989126 -30.226452 -30.764620 15.418040 -1.271523 0.530684 6.123469 -8.039366 
